<svg width="124" height="48" viewBox="0 0 124 48" fill="none" xmlns="http://www.w3.org/2000/svg">
	<path fill-rule="evenodd" clip-rule="evenodd" d="M30.777 20.004C31.515 19.815 32.289 19.716 33.09 19.716C38.094 19.716 42.162 23.766 42.162 28.779C42.162 33.792 38.103 37.842 33.099 37.842C28.41 37.842 24.549 34.278 24.081 29.697C23.613 34.269 19.761 37.842 15.063 37.842C10.05 37.842 6 33.783 6 28.779C6 23.766 10.05 19.716 15.054 19.716C15.855 19.716 16.629 19.815 17.367 20.004C16.179 18.537 15.459 16.656 15.459 14.613C15.459 9.852 19.311 6 24.072 6C28.833 6 32.685 9.852 32.685 14.613C32.685 16.647 31.965 18.528 30.777 20.004ZM25.422 28.275C26.232 29.769 27.357 30.318 27.357 30.318C30.948 24.675 26.889 23.073 26.889 23.073C26.889 23.073 26.817 23.046 26.817 23.037C26.574 18.888 23.928 15.072 23.928 15.072C23.928 15.072 21.246 18.798 21.165 23.046L21.102 23.073C21.102 23.073 17.061 24.684 20.652 30.327C20.652 30.327 21.84 29.742 22.65 28.158C23.01 28.68 23.433 29.184 23.946 29.679L24.162 29.67C24.675 29.229 25.071 28.761 25.422 28.275ZM26.772 39.3901H21.489C20.769 39.3901 20.184 39.9751 20.184 40.6951C20.184 41.4151 20.769 42.0001 21.489 42.0001H26.772C27.492 42.0001 28.077 41.4151 28.077 40.6951C28.077 39.9751 27.492 39.3901 26.772 39.3901Z" fill="url(#paint0_linear)"/>
	<path d="M51.5761 22.1283C51.4681 22.1283 51.3691 22.0923 51.2791 22.0113C51.1981 21.9213 51.1621 21.8223 51.1621 21.7143V11.0313C51.1621 10.9143 51.1981 10.8153 51.2791 10.7343C51.3691 10.6533 51.4681 10.6173 51.5761 10.6173H56.0491C57.4891 10.6173 58.6051 10.9503 59.4061 11.6073C60.2161 12.2553 60.6211 13.1733 60.6211 14.3703C60.6211 15.1353 60.4411 15.7923 60.0811 16.3233C59.7211 16.8633 59.2171 17.2683 58.5871 17.5563L60.8371 21.5973C60.8731 21.6603 60.8821 21.7233 60.8821 21.7773C60.8821 21.8673 60.8461 21.9483 60.7651 22.0203C60.7021 22.0833 60.6211 22.1193 60.5311 22.1193H58.3441C58.0291 22.1193 57.8041 21.9753 57.6691 21.6783L55.7971 18.0603H54.1231V21.7143C54.1231 21.8313 54.0781 21.9303 53.9881 22.0113C53.9071 22.0923 53.8171 22.1283 53.6911 22.1283H51.5761ZM56.0131 15.7383C56.5171 15.7383 56.9041 15.6213 57.1651 15.3783C57.4261 15.1263 57.5611 14.7843 57.5611 14.3433C57.5611 13.9023 57.4261 13.5603 57.1651 13.3083C56.9131 13.0473 56.5261 12.9123 56.0131 12.9123H54.1231V15.7383H56.0131ZM67.5151 22.2903C65.9671 22.2903 64.7521 21.9123 63.8611 21.1563C62.9701 20.4003 62.5021 19.2843 62.4481 17.8173C62.4391 17.5023 62.4301 17.0253 62.4301 16.4043C62.4301 15.7653 62.4391 15.2883 62.4481 14.9733C62.5021 13.5243 62.9791 12.4173 63.8791 11.6343C64.7881 10.8423 66.0031 10.4463 67.5151 10.4463C69.0271 10.4463 70.2421 10.8423 71.1511 11.6343C72.0601 12.4083 72.5371 13.5243 72.5821 14.9733C72.6001 15.6123 72.6181 16.0893 72.6181 16.4043C72.6181 16.7103 72.6091 17.1783 72.5821 17.8173C72.5281 19.2843 72.0601 20.4003 71.1691 21.1563C70.2781 21.9123 69.0631 22.2903 67.5151 22.2903ZM67.5151 19.9233C68.1181 19.9233 68.5951 19.7433 68.9461 19.3833C69.3061 19.0233 69.5041 18.4653 69.5221 17.7183C69.5401 17.0793 69.5581 16.6293 69.5581 16.3683C69.5581 16.0803 69.5491 15.6303 69.5221 15.0183C69.5041 14.2803 69.3151 13.7313 68.9461 13.3623C68.5861 13.0023 68.1091 12.8223 67.5151 12.8223C66.9211 12.8223 66.4441 13.0023 66.0841 13.3623C65.7331 13.7223 65.5441 14.2803 65.5081 15.0273C65.4991 15.3333 65.4901 15.7833 65.4901 16.3773C65.4901 16.9623 65.4991 17.4033 65.5081 17.7273C65.5441 18.4743 65.7331 19.0233 66.0841 19.3923C66.4351 19.7433 66.9121 19.9233 67.5151 19.9233ZM79.5661 22.2903C78.0001 22.2903 76.7671 21.9123 75.8851 21.1563C75.0121 20.3913 74.5441 19.2843 74.4901 17.8353C74.4811 17.5383 74.4721 17.0613 74.4721 16.3863C74.4721 15.7023 74.4811 15.2163 74.4901 14.9103C74.5441 13.4883 75.0211 12.3903 75.9211 11.6253C76.8211 10.8513 78.0361 10.4553 79.5751 10.4553C80.5381 10.4553 81.4021 10.6173 82.1761 10.9503C82.9411 11.2653 83.5441 11.7243 83.9851 12.3273C84.4351 12.9213 84.6691 13.6143 84.6781 14.4153V14.4513C84.6781 14.5413 84.6421 14.6133 84.5611 14.6853C84.4981 14.7393 84.4171 14.7663 84.3271 14.7663H82.1041C81.9601 14.7663 81.8521 14.7393 81.7711 14.6853C81.6901 14.6223 81.6271 14.5053 81.5731 14.3433C81.4201 13.7853 81.1771 13.3983 80.8531 13.1733C80.5201 12.9393 80.0881 12.8223 79.5571 12.8223C78.2611 12.8223 77.5951 13.5423 77.5501 14.9913C77.5411 15.2883 77.5321 15.7383 77.5321 16.3593C77.5321 16.9713 77.5411 17.4393 77.5501 17.7543C77.5951 19.2033 78.2611 19.9233 79.5571 19.9233C80.0971 19.9233 80.5291 19.8063 80.8711 19.5813C81.2131 19.3383 81.4471 18.9513 81.5821 18.4113C81.6271 18.2493 81.6901 18.1413 81.7621 18.0783C81.8431 18.0153 81.9511 17.9793 82.1041 17.9793H84.3271C84.4261 17.9793 84.5071 18.0153 84.5701 18.0783C84.6511 18.1413 84.6781 18.2223 84.6691 18.3213C84.6601 19.1223 84.4261 19.8243 83.9761 20.4273C83.5351 21.0213 82.9321 21.4803 82.1671 21.8043C81.4021 22.1373 80.5381 22.2903 79.5661 22.2903ZM87.1351 22.1283C87.0271 22.1283 86.9281 22.0923 86.8381 22.0113C86.7571 21.9213 86.7211 21.8223 86.7211 21.7143V11.0313C86.7211 10.9143 86.7571 10.8153 86.8381 10.7343C86.9281 10.6623 87.0271 10.6173 87.1351 10.6173H89.2051C89.3221 10.6173 89.4211 10.6533 89.5021 10.7343C89.5741 10.8153 89.6191 10.9053 89.6191 11.0313V14.6853L92.6611 10.9323C92.7961 10.7253 93.0031 10.6173 93.3001 10.6173H95.6671C95.7661 10.6173 95.8471 10.6533 95.9101 10.7343C95.9731 10.7973 96.0091 10.8783 96.0091 10.9683C96.0091 11.0493 95.9911 11.1123 95.9641 11.1663L92.0221 16.1343L96.2611 21.5973C96.3061 21.6423 96.3241 21.7053 96.3241 21.7953C96.3241 21.8853 96.2881 21.9663 96.2251 22.0383C96.1621 22.1013 96.0811 22.1373 95.9821 22.1373H93.5341C93.2731 22.1373 93.0481 22.0293 92.8771 21.8043L89.6191 17.7453V21.7233C89.6191 21.8403 89.5831 21.9393 89.5021 22.0203C89.4211 22.1013 89.3221 22.1373 89.2051 22.1373H87.1351V22.1283ZM98.3671 22.1283C98.2591 22.1283 98.1601 22.0923 98.0701 22.0113C97.9891 21.9213 97.9531 21.8223 97.9531 21.7143V11.0313C97.9531 10.9143 97.9891 10.8153 98.0701 10.7343C98.1601 10.6533 98.2591 10.6173 98.3671 10.6173H106.044C106.161 10.6173 106.26 10.6533 106.341 10.7343C106.422 10.8153 106.458 10.9053 106.458 11.0313V12.5793C106.458 12.6873 106.422 12.7863 106.341 12.8763C106.26 12.9573 106.161 12.9933 106.044 12.9933H100.797V15.2163H105.684C105.801 15.2163 105.9 15.2613 105.981 15.3513C106.062 15.4323 106.098 15.5223 106.098 15.6483V17.0793C106.098 17.1873 106.062 17.2863 105.981 17.3763C105.9 17.4573 105.801 17.4933 105.684 17.4933H100.797V19.7793H106.17C106.287 19.7793 106.386 19.8153 106.467 19.8963C106.548 19.9773 106.584 20.0673 106.584 20.1933V21.7413C106.584 21.8493 106.548 21.9483 106.467 22.0383C106.386 22.1193 106.287 22.1553 106.17 22.1553H98.3671V22.1283ZM111.732 22.1283C111.624 22.1283 111.525 22.0923 111.435 22.0113C111.354 21.9213 111.318 21.8223 111.318 21.7143V13.2003H108.393C108.285 13.2003 108.186 13.1643 108.096 13.0833C108.015 12.9933 107.979 12.8943 107.979 12.7863V11.0313C107.979 10.9143 108.015 10.8153 108.096 10.7343C108.186 10.6533 108.285 10.6173 108.393 10.6173H117.24C117.357 10.6173 117.456 10.6533 117.537 10.7343C117.609 10.8153 117.654 10.9053 117.654 11.0313V12.7863C117.654 12.9033 117.618 13.0023 117.537 13.0833C117.456 13.1643 117.357 13.2003 117.24 13.2003H114.315V21.7143C114.315 21.8223 114.279 21.9213 114.198 22.0113C114.117 22.0923 114.018 22.1283 113.901 22.1283H111.732ZM51.5761 37.5453C51.4681 37.5453 51.3691 37.5093 51.2791 37.4283C51.1981 37.3383 51.1621 37.2393 51.1621 37.1313V26.4483C51.1621 26.3313 51.1981 26.2323 51.2791 26.1513C51.3691 26.0703 51.4681 26.0343 51.5761 26.0343H56.1841C57.5881 26.0343 58.6861 26.3583 59.4871 27.0063C60.2971 27.6543 60.7021 28.5993 60.7021 29.8323C60.7021 31.0563 60.3061 31.9833 59.5051 32.6133C58.7041 33.2253 57.5971 33.5313 56.1841 33.5313H54.2311V37.1313C54.2311 37.2483 54.1861 37.3473 54.0961 37.4283C54.0151 37.5093 53.9251 37.5453 53.7991 37.5453H51.5761ZM56.1031 31.2633C56.5891 31.2633 56.9671 31.1463 57.2371 30.9033C57.5071 30.6513 57.6511 30.2823 57.6511 29.8053C57.6511 29.3553 57.5161 28.9953 57.2551 28.7343C57.0031 28.4643 56.6161 28.3203 56.1031 28.3203H54.1771V31.2633H56.1031ZM62.3671 37.5453C62.2591 37.5453 62.1601 37.5093 62.0701 37.4283C61.9891 37.3383 61.9531 37.2393 61.9531 37.1313V26.4483C61.9531 26.3313 61.9891 26.2323 62.0701 26.1513C62.1601 26.0703 62.2591 26.0343 62.3671 26.0343H64.5361C64.6531 26.0343 64.7521 26.0703 64.8331 26.1513C64.9141 26.2323 64.9501 26.3223 64.9501 26.4483V35.0613H69.9271C70.0441 35.0613 70.1431 35.1063 70.2241 35.1963C70.3051 35.2773 70.3411 35.3673 70.3411 35.4933V37.1403C70.3411 37.2483 70.3051 37.3473 70.2241 37.4373C70.1431 37.5183 70.0531 37.5543 69.9271 37.5543H62.3671V37.5453ZM72.0871 37.5453C71.9971 37.5453 71.9161 37.5093 71.8441 37.4463C71.7811 37.3653 71.7451 37.2843 71.7451 37.2033C71.7451 37.1403 71.7541 37.0863 71.7631 37.0593L75.6241 26.5023C75.6601 26.3673 75.7321 26.2593 75.8401 26.1693C75.9481 26.0793 76.0921 26.0343 76.2721 26.0343H78.7021C78.8731 26.0343 79.0171 26.0793 79.1341 26.1693C79.2421 26.2593 79.3141 26.3673 79.3501 26.5023L83.1931 37.0593L83.2291 37.2033C83.2291 37.2933 83.1931 37.3743 83.1121 37.4463C83.0491 37.5093 82.9681 37.5453 82.8691 37.5453H80.8441C80.5831 37.5453 80.4031 37.4283 80.3221 37.2033L79.6831 35.5293H75.2911L74.6701 37.2033C74.5801 37.4373 74.4001 37.5453 74.1301 37.5453H72.0871ZM79.0081 33.1533L77.4781 28.8153L75.9481 33.1533H79.0081ZM86.8831 37.5453C86.7751 37.5453 86.6761 37.5093 86.5861 37.4283C86.5051 37.3383 86.4691 37.2393 86.4691 37.1313V33.5943L82.6531 26.5563C82.6171 26.4573 82.6081 26.3943 82.6081 26.3763C82.6081 26.2863 82.6441 26.2143 82.7071 26.1423C82.7791 26.0613 82.8691 26.0253 82.9681 26.0253H85.0201C85.2361 26.0253 85.4341 26.1423 85.5961 26.3673L87.9451 30.6063L90.3121 26.3673C90.4471 26.1333 90.6361 26.0253 90.8881 26.0253H92.9401C93.0391 26.0253 93.1201 26.0613 93.1831 26.1423C93.2461 26.2053 93.2821 26.2863 93.2821 26.3763C93.2821 26.4303 93.2731 26.4933 93.2461 26.5563L89.4301 33.5943V37.1313C89.4301 37.2483 89.3851 37.3473 89.2951 37.4283C89.2141 37.5093 89.1151 37.5453 88.9981 37.5453H86.8831Z" fill="white"/>
	<defs>
		<linearGradient id="paint0_linear" x1="42.162" y1="24.0001" x2="6" y2="24.0001" gradientUnits="userSpaceOnUse">
			<stop stop-color="#FFFF7B"/>
			<stop offset="1" stop-color="#FFD149"/>
		</linearGradient>
	</defs>
</svg>
